<svg width="{{ width|default:92 }}" viewBox="0 0 92 34" fill={{ color|default:"#003049" }} xmlns="http://www.w3.org/2000/svg">
<path d="M8.70993 8.49656C8.59947 8.49656 8.50993 8.58611 8.50993 8.69656V12.314C8.50993 12.4244 8.59947 12.514 8.70993 12.514H20.2102C20.3207 12.514 20.4102 12.6035 20.4102 12.714V20.0255C20.4102 20.136 20.3207 20.2255 20.2102 20.2255H8.70993C8.59947 20.2255 8.50993 20.3151 8.50993 20.4255V24.6432C8.50993 24.7537 8.59947 24.8432 8.70993 24.8432H21.5955C21.706 24.8432 21.7955 24.9327 21.7955 25.0432V32.8165C21.7955 32.927 21.706 33.0165 21.5955 33.0165H0.200001C0.0895443 33.0165 0 32.927 0 32.8165V0.523242C0 0.412785 0.0895431 0.32324 0.2 0.32324H21.5955C21.706 0.32324 21.7955 0.412783 21.7955 0.52324V8.29656C21.7955 8.40702 21.706 8.49656 21.5955 8.49656H8.70993Z" fill="inherit"/>
<path d="M59.9994 16.6237C59.9994 13.3913 60.6459 10.513 61.9388 7.98861C63.2625 5.46427 65.1404 3.50945 67.5724 2.12414C70.0044 0.708047 72.8674 0 76.1613 0C78.9935 0 81.5178 0.538732 83.7343 1.61619C85.9816 2.66287 87.7979 4.15593 89.1832 6.09536C90.5993 8.03479 91.5382 10.2975 92 12.8834H81.1946C80.702 11.8059 79.994 10.9747 79.0705 10.3898C78.1777 9.77412 77.1464 9.46628 75.9766 9.46628C74.2527 9.46628 72.8827 10.1128 71.8669 11.4057C70.8817 12.6987 70.3892 14.438 70.3892 16.6237C70.3892 18.8094 70.8817 20.5487 71.8669 21.8417C72.8827 23.1347 74.2527 23.7811 75.9766 23.7811C77.1464 23.7811 78.1777 23.4887 79.0705 22.9038C79.994 22.2881 80.702 21.4415 81.1946 20.364H92C91.5382 22.95 90.5993 25.2126 89.1832 27.1521C87.7979 29.0915 85.9816 30.5999 83.7343 31.6774C81.5178 32.7241 78.9935 33.2474 76.1613 33.2474C72.8674 33.2474 70.0044 32.5548 67.5724 31.1695C65.1404 29.7534 63.2625 27.7831 61.9388 25.2588C60.6459 22.7345 59.9994 19.8561 59.9994 16.6237Z" fill="inherit"/>
<path d="M39.3598 9.54472H28.1362L45.5442 33.5212H56.9968L39.3598 9.54472Z" fill="inherit"/>
<path d="M48.754 20.128L56.894 9.54477L46.1139 9.54477L43.3199 13.1667L48.754 20.128Z" fill="inherit"/>
<path d="M36.2895 22.8889L28.1362 33.4721H39.1542L41.7104 30.0066L36.2895 22.8889Z" fill="inherit"/>
</svg>
