<svg width="31" height="30" viewBox="0 0 31 30" fill="none" xmlns="http://www.w3.org/2000/svg">
<g clip-path="url(#clip0_13_280)">
<path d="M7.0546 15.135C8.82706 15.135 10.2626 13.5749 10.2626 11.6633C10.2626 9.77365 8.83438 8.27219 7.0546 8.27219C5.29678 8.27219 3.84659 9.79562 3.85391 11.6706C3.85391 13.5822 5.28946 15.135 7.0546 15.135ZM15.3529 15.135C17.1181 15.135 18.5536 13.5749 18.5536 11.6633C18.5536 9.77365 17.1327 8.27219 15.3529 8.27219C13.5878 8.27219 12.1449 9.79562 12.1523 11.6706C12.1523 13.5822 13.5878 15.135 15.3529 15.135ZM23.6513 15.135C25.4237 15.135 26.8593 13.5749 26.8593 11.6633C26.8593 9.77365 25.4311 8.27219 23.6513 8.27219C21.8935 8.27219 20.4433 9.79562 20.4506 11.6706C20.4506 13.5822 21.8861 15.135 23.6513 15.135ZM7.0546 13.8752C6.04385 13.8752 5.1796 12.9084 5.1796 11.6706C5.17227 10.4695 6.02921 9.53928 7.0546 9.53928C8.08731 9.53928 8.93692 10.4548 8.93692 11.6633C8.93692 12.8938 8.07999 13.8752 7.0546 13.8752ZM15.3529 13.8752C14.3349 13.8752 13.4779 12.9084 13.4779 11.6706C13.4706 10.4695 14.3275 9.53928 15.3529 9.53928C16.3857 9.53928 17.2279 10.4548 17.2279 11.6633C17.2279 12.8938 16.3783 13.8752 15.3529 13.8752ZM23.6513 13.8752C22.6405 13.8752 21.7763 12.9084 21.7763 11.6706C21.769 10.4695 22.6259 9.53928 23.6513 9.53928C24.684 9.53928 25.5336 10.4548 25.5336 11.6633C25.5336 12.8938 24.6767 13.8752 23.6513 13.8752ZM2.49161 22.0344H11.6249C12.8847 22.0344 13.4926 21.6389 13.4926 20.782C13.4926 18.7751 10.9877 16.0798 7.0546 16.0798C3.12149 16.0798 0.616608 18.7751 0.616608 20.782C0.616608 21.6389 1.22452 22.0344 2.49161 22.0344ZM15.3529 16.0798C14.1518 16.0798 13.0898 16.3362 12.1889 16.7463C12.5771 17.0393 12.9213 17.3615 13.2069 17.7131C13.8222 17.4934 14.5473 17.3469 15.3529 17.3469C18.5829 17.3469 20.3993 19.4563 20.3993 20.5769C20.3993 20.716 20.3334 20.7673 20.1576 20.7673H14.4814C14.4887 21.2214 14.4081 21.6462 14.1444 22.0344H19.9159C21.1757 22.0344 21.7909 21.6389 21.7909 20.782C21.7909 18.7751 19.2787 16.0798 15.3529 16.0798ZM23.6513 16.0798C22.4501 16.0798 21.3881 16.3362 20.4799 16.7463C20.8681 17.0393 21.2196 17.3615 21.5053 17.7204C22.1205 17.4934 22.8456 17.3469 23.6513 17.3469C26.8886 17.3469 28.705 19.4563 28.705 20.5769C28.705 20.716 28.6317 20.7673 28.4633 20.7673H22.7797C22.7797 21.2214 22.7065 21.6462 22.4355 22.0344H28.2216C29.4814 22.0344 30.0893 21.6389 30.0893 20.782C30.0893 18.7751 27.5844 16.0798 23.6513 16.0798ZM2.24258 20.7673C2.07413 20.7673 2.00821 20.716 2.00821 20.5769C2.00821 19.4563 3.81729 17.3469 7.0546 17.3469C10.2919 17.3469 12.1083 19.4563 12.1083 20.5769C12.1083 20.716 12.0351 20.7673 11.8666 20.7673H2.24258Z" fill="black"/>
</g>
<defs>
<clipPath id="clip0_13_280">
<rect width="30" height="30" fill="white" transform="translate(0.352936)"/>
</clipPath>
</defs>
</svg>
