<svg xmlns="http://www.w3.org/2000/svg" width="150" height="150" fill="none" xmlns:v="https://vecta.io/nano"><rect width="150" height="150" rx="12" fill="#003049"/><path d="M22 39c8.284 0 15-6.716 15-15S30.284 9 22 9 7 15.716 7 24s6.716 15 15 15z" fill="#fff"/><path d="M142 10h-21a2 2 0 0 0-2 2v21a2 2 0 0 0 2 2h21a2 2 0 0 0 2-2V12a2 2 0 0 0-2-2zM33.487 117.404l-20.885-2.195a2 2 0 0 0-2.198 1.78l-2.195 20.885a2 2 0 0 0 1.78 2.198l20.885 2.195a2 2 0 0 0 2.198-1.78l2.195-20.885a2 2 0 0 0-1.78-2.198z" fill="#fcbf49"/><path d="M21.975 11.946c-6.444 3.088-9.245 5.59-12.088 12.088 2.955 6.075 5.844 8.535 12.088 12.088 6.517-3.023 9.038-5.787 12.088-12.088-3.626-6.089-6.18-8.852-12.088-12.088z" fill="#f77f00"/><path d="M34.25 66.235v4.367h12.935v8.382H34.25v5.019h14.441v8.884H25V57.351h23.691v8.884H34.25zm55.967 8.834c0-3.513.703-6.642 2.108-9.386 1.439-2.744 3.48-4.869 6.124-6.375 2.644-1.539 5.756-2.309 9.336-2.309 3.079 0 5.822.586 8.232 1.757 2.442 1.138 4.417 2.761 5.922 4.869 1.54 2.108 2.56 4.567 3.062 7.378h-11.745c-.535-1.171-1.305-2.075-2.309-2.71-.97-.669-2.091-1.004-3.363-1.004-1.874 0-3.363.703-4.467 2.108-1.071 1.405-1.606 3.296-1.606 5.672s.535 4.266 1.606 5.672c1.104 1.405 2.593 2.108 4.467 2.108 1.272 0 2.393-.318 3.363-.954 1.004-.669 1.774-1.589 2.309-2.761H125c-.502 2.811-1.522 5.27-3.062 7.378-1.505 2.108-3.48 3.748-5.922 4.919-2.41 1.138-5.153 1.706-8.232 1.706-3.58 0-6.692-.753-9.336-2.259-2.644-1.539-4.685-3.681-6.124-6.425-1.405-2.744-2.108-5.873-2.108-9.386zm-22.434-7.694H55.584l18.922 26.061h12.448L67.783 67.375zm10.21 11.503l8.848-11.504H75.124l-3.037 3.937 5.907 7.567zm-13.547 3.001l-8.862 11.504H67.56l2.778-3.767-5.892-7.737z" fill="#eae2b7"/></svg>